<svg width="340" height="340" viewBox="0 0 340 340" fill="none" xmlns="http://www.w3.org/2000/svg">
<rect width="340" height="340" rx="70" fill="#16152F"/>
<path d="M69 141.387L164.5 196.466V306.613L69 251.534V141.387ZM170.5 186.074L75.0095 131L119.748 105.198L170.5 75.9264L265.991 131L170.5 186.074ZM176.5 196.466L272 141.387V251.534L176.5 306.613V196.466Z" fill="url(#paint0_linear_0_1)" stroke="#16152F" stroke-width="12"/>
<path d="M170 101V170M230 135.5L170 170L110 135.5L170 101L230 135.5Z" fill="#16152F"/>
<path d="M170 101V170M230 135.5L170 170L110 135.5L170 101L230 135.5Z" stroke="#16152F"/>
<path d="M170.5 143C198.39 143 221 120.39 221 92.5C221 64.6096 198.39 42 170.5 42C142.61 42 120 64.6096 120 92.5C120 120.39 142.61 143 170.5 143Z" fill="#3F3D56"/>
<path opacity="0.1" d="M170.5 136C194.524 136 214 116.524 214 92.5C214 68.4756 194.524 49 170.5 49C146.476 49 127 68.4756 127 92.5C127 116.524 146.476 136 170.5 136Z" fill="#F1F1F1"/>
<path d="M170.825 52.3448L146.553 92.9355L170.907 107.379L170.825 52.3448Z" fill="#8C8C8C"/>
<path d="M195.262 92.9355L170.907 52.3448L170.99 107.379L195.262 92.9355Z" fill="#333333"/>
<path d="M146.553 92.9133L170.878 81.7595L170.907 107.379L146.553 92.9133Z" fill="#383838"/>
<path d="M195.262 92.9076L170.907 81.7595L170.96 106.43L195.262 92.9076Z" fill="#141414"/>
<path d="M195.262 97.5738L170.907 111.997V131.891L195.262 97.5738Z" fill="#333333"/>
<path d="M146.553 97.5738L170.907 111.997V131.891L146.553 97.5738Z" fill="#8C8C8C"/>
<path d="M170.825 52.3448L146.553 92.9355L170.907 107.379L170.825 52.3448Z" fill="#8C8C8C"/>
<path d="M195.39 92.7801L170.814 52.3448L170.897 107.168L195.39 92.7801Z" fill="#333333"/>
<path d="M146.553 92.9133L170.878 81.7595L170.907 107.379L146.553 92.9133Z" fill="#383838"/>
<path d="M195.39 93.3217L170.814 81.6468L170.867 107.483L195.39 93.3217Z" fill="#141414"/>
<path d="M195.262 97.5738L170.907 111.997V131.891L195.262 97.5738Z" fill="#333333"/>
<path d="M146.553 97.5738L170.907 111.997V131.891L146.553 97.5738Z" fill="#8C8C8C"/>
<rect width="340" height="340" rx="70" fill="#16152F"/>
<rect width="340" height="340" fill="#16152F"/>
<path d="M69 141.387L164.5 196.466V306.613L69 251.534V141.387ZM170.5 186.074L75.0095 131L119.748 105.198L170.5 75.9264L265.991 131L170.5 186.074ZM176.5 196.466L272 141.387V251.534L176.5 306.613V196.466Z" fill="url(#paint1_linear_0_1)" stroke="#16152F" stroke-width="12"/>
<path d="M170 101V170M230 135.5L170 170L110 135.5L170 101L230 135.5Z" fill="#16152F"/>
<path d="M170 101V170M230 135.5L170 170L110 135.5L170 101L230 135.5Z" stroke="#16152F"/>
<path d="M170.5 143C198.39 143 221 120.39 221 92.5C221 64.6096 198.39 42 170.5 42C142.61 42 120 64.6096 120 92.5C120 120.39 142.61 143 170.5 143Z" fill="#3F3D56"/>
<path opacity="0.1" d="M170.5 136C194.524 136 214 116.524 214 92.5C214 68.4756 194.524 49 170.5 49C146.476 49 127 68.4756 127 92.5C127 116.524 146.476 136 170.5 136Z" fill="#F1F1F1"/>
<path d="M170.825 52.3448L146.553 92.9355L170.907 107.379L170.825 52.3448Z" fill="#8C8C8C"/>
<path d="M195.262 92.9355L170.907 52.3448L170.99 107.379L195.262 92.9355Z" fill="#333333"/>
<path d="M146.553 92.9133L170.878 81.7595L170.907 107.379L146.553 92.9133Z" fill="#383838"/>
<path d="M195.262 92.9076L170.907 81.7595L170.96 106.43L195.262 92.9076Z" fill="#141414"/>
<path d="M195.262 97.5738L170.907 111.997V131.891L195.262 97.5738Z" fill="#333333"/>
<path d="M146.553 97.5738L170.907 111.997V131.891L146.553 97.5738Z" fill="#8C8C8C"/>
<path d="M170.825 52.3448L146.553 92.9355L170.907 107.379L170.825 52.3448Z" fill="#8C8C8C"/>
<path d="M195.39 92.7801L170.814 52.3448L170.897 107.168L195.39 92.7801Z" fill="#333333"/>
<path d="M146.553 92.9133L170.878 81.7595L170.907 107.379L146.553 92.9133Z" fill="#383838"/>
<path d="M195.39 93.3217L170.814 81.6468L170.867 107.483L195.39 93.3217Z" fill="#141414"/>
<path d="M195.262 97.5738L170.907 111.997V131.891L195.262 97.5738Z" fill="#333333"/>
<path d="M146.553 97.5738L170.907 111.997V131.891L146.553 97.5738Z" fill="#8C8C8C"/>
<defs>
<linearGradient id="paint0_linear_0_1" x1="334.071" y1="114.728" x2="145.443" y2="290.039" gradientUnits="userSpaceOnUse">
<stop offset="0.244792" stop-color="#62F6FF"/>
<stop offset="0.552083" stop-color="#666AFF"/>
<stop offset="1" stop-color="#B228BC" stop-opacity="0.47"/>
</linearGradient>
<linearGradient id="paint1_linear_0_1" x1="334.071" y1="114.728" x2="145.443" y2="290.039" gradientUnits="userSpaceOnUse">
<stop offset="0.244792" stop-color="#62F6FF"/>
<stop offset="0.552083" stop-color="#666AFF"/>
<stop offset="1" stop-color="#B228BC" stop-opacity="0.47"/>
</linearGradient>
</defs>
</svg>
